<?xml version="1.0" standalone="no"?>
<!DOCTYPE svg PUBLIC "-//W3C//DTD SVG 20010904//EN"
 "http://www.w3.org/TR/2001/REC-SVG-20010904/DTD/svg10.dtd">
<svg version="1.0" xmlns="http://www.w3.org/2000/svg"
 width="500.000000pt" height="313.000000pt" viewBox="0 0 500.000000 313.000000"
 preserveAspectRatio="xMidYMid meet">

<g transform="translate(0.000000,313.000000) scale(0.100000,-0.100000)"
fill="#000000" stroke="none">
<path d="M193 2226 c-149 -109 -222 -300 -162 -423 23 -47 80 -93 116 -93 28
0 28 3 1 59 -32 64 -31 191 1 274 23 59 76 137 99 145 9 3 12 -82 12 -405 0
-396 -6 -481 -35 -555 -6 -14 -2 -18 19 -18 36 0 89 51 117 112 24 53 24 55
27 485 l3 432 -30 16 c-55 28 -102 20 -168 -29z"/>
<path d="M1638 2264 c-5 -4 -8 -28 -8 -54 0 -26 -3 -69 -7 -95 l-6 -47 -69 4
c-67 5 -70 5 -79 -20 -21 -56 -11 -67 71 -72 l75 -5 0 -165 c0 -159 -1 -167
-27 -221 -15 -30 -38 -65 -51 -78 l-24 -22 -6 40 c-8 61 -41 106 -128 172 -78
59 -89 72 -69 84 18 11 51 86 52 117 2 55 -51 73 -118 42 -70 -33 -100 -112
-68 -179 l18 -38 -44 -83 c-83 -157 -140 -226 -160 -194 -5 8 -10 109 -10 226
0 233 3 222 -69 259 -87 44 -186 -56 -247 -247 -10 -32 -20 -58 -23 -58 -3 0
-6 66 -6 147 l0 147 -45 13 c-25 7 -51 11 -57 8 -10 -3 -13 -71 -13 -292 0
-328 1 -333 69 -333 46 0 56 11 64 70 17 132 115 376 171 429 14 14 28 23 30
20 2 -2 0 -71 -4 -154 -8 -170 1 -295 25 -331 18 -28 54 -39 92 -29 45 11 123
101 201 233 40 67 76 122 80 122 10 0 94 -87 116 -120 25 -38 21 -102 -8 -129
-28 -27 -60 -23 -107 10 -36 26 -54 24 -78 -7 -30 -39 -27 -66 12 -89 26 -16
50 -20 127 -20 85 0 100 3 140 27 57 33 90 68 133 140 l34 58 7 -48 c13 -98
80 -182 146 -182 42 0 92 40 129 104 l35 58 21 -49 c58 -131 196 -148 294 -37
l39 44 12 -30 c17 -40 63 -78 105 -86 43 -8 91 18 120 64 23 37 31 39 40 12
10 -32 71 -72 118 -77 50 -6 94 12 145 60 l32 31 0 -31 c0 -26 -15 -45 -101
-124 -121 -112 -159 -170 -159 -248 0 -49 3 -57 38 -91 76 -76 179 -74 258 6
60 60 75 114 81 304 l6 155 62 87 c61 84 147 245 160 301 7 25 11 27 61 27 30
0 54 -2 54 -5 0 -3 -7 -47 -16 -97 -35 -203 17 -352 131 -374 46 -8 89 10 124
53 l29 35 21 -30 c28 -40 98 -67 148 -58 49 9 107 47 129 86 22 36 30 38 38 7
25 -103 162 -127 221 -39 25 36 25 36 25 10 0 -15 7 -33 15 -42 22 -21 82 -31
111 -17 22 10 24 16 24 91 0 95 22 209 57 296 43 108 48 102 61 -69 7 -83 17
-171 23 -195 18 -66 70 -98 120 -72 15 9 19 22 19 68 0 88 31 215 77 318 l18
39 6 -160 c7 -174 21 -230 66 -277 56 -58 147 -54 189 9 23 35 50 145 40 162
-16 25 -34 8 -49 -47 -29 -103 -71 -117 -112 -36 -18 36 -20 56 -18 237 2 185
1 198 -18 216 -25 23 -94 44 -119 36 -23 -7 -73 -131 -102 -257 -11 -49 -23
-86 -27 -83 -3 3 -8 71 -11 151 -5 140 -6 146 -30 164 -30 23 -72 34 -99 25
-19 -6 -62 -95 -91 -190 -23 -74 -30 -61 -30 58 0 130 2 127 -82 130 l-33 2
-5 -215 c-6 -221 -9 -238 -53 -302 -24 -37 -61 -37 -84 -1 -16 24 -18 54 -18
257 l0 230 -34 13 c-48 20 -85 14 -89 -16 -4 -23 -4 -23 -17 -3 -8 11 -30 27
-49 36 -101 48 -200 -18 -248 -164 -17 -52 -21 -92 -22 -201 -1 -120 -3 -140
-20 -158 -27 -30 -70 -27 -92 7 -29 44 -32 195 -4 320 31 144 12 167 -115 143
-85 -15 -85 -15 -85 22 0 42 -15 57 -56 57 -46 0 -63 -9 -79 -41 -21 -39 -19
-82 5 -112 l20 -25 -28 -80 c-16 -44 -48 -113 -73 -153 l-44 -74 -5 215 -5
214 -25 13 c-37 19 -77 16 -93 -7 -13 -18 -15 -19 -27 -5 -36 43 -116 58 -168
31 -95 -50 -144 -182 -141 -380 1 -78 -2 -101 -18 -128 -16 -27 -25 -33 -54
-33 -52 0 -58 30 -58 292 l-1 221 -31 11 c-50 17 -80 14 -86 -9 -6 -24 -16
-25 -34 -4 -55 67 -162 56 -230 -24 -47 -54 -69 -123 -79 -238 -9 -107 -43
-190 -90 -226 -32 -24 -54 -16 -72 25 -19 45 -16 506 4 518 7 5 48 9 91 9 72
0 78 2 89 24 20 45 6 56 -74 56 -119 0 -115 -3 -110 95 l4 85 -28 11 c-40 15
-97 22 -106 13z m571 -414 c50 -26 70 -213 36 -328 -19 -62 -68 -122 -99 -122
-28 0 -59 34 -75 79 -16 49 -14 218 4 278 25 85 79 123 134 93z m615 -23 c30
-40 36 -212 11 -304 -28 -102 -95 -153 -138 -105 -49 54 -63 208 -31 324 32
112 108 152 158 85z m1030 3 c31 -37 40 -96 33 -205 -8 -139 -68 -237 -133
-221 -83 21 -97 320 -19 422 35 46 82 47 119 4z m-987 -672 c-4 -57 -11 -120
-17 -140 -16 -55 -56 -98 -91 -98 -67 0 -90 78 -46 160 24 46 136 179 151 180
5 0 6 -44 3 -102z"/>
</g>
</svg>
